<svg xmlns="http://www.w3.org/2000/svg" xmlns:xlink="http://www.w3.org/1999/xlink" viewBox="0 0 512 512">
  <style>
    @-webkit-keyframes twirl-phone {
      0% {}

      30% {
        -webkit-transform: rotate(-6deg) translateY(-10px);
      }

      75% {
        -webkit-transform: rotate(5deg) translateY(-20px);
      }

      100% {
        -webkit-transform: rotate(0deg) translateY(0px);
      }
    }

    @keyframes twirl-phone {
      0% {}

      30% {
        transform: rotate(-6deg) translateY(-10px);
      }

      75% {
        transform: rotate(5deg) translateY(-20px);
      }

      100% {
        transform: rotate(0deg) translateY(0px);
      }
    }

    #lc_phone-head {
      -webkit-transform-origin: 50% 50%;
      -webkit-animation: twirl-phone 0.5s alternate infinite linear;

      transform-origin: 50% 50%;
      animation: twirl-phone 0.5s alternate infinite linear;
    }
  </style>
  <g>
    <g>
      <path d="M512,256c0,141.393-114.607,256-256,256c-3.742,0-7.442-0.077-11.146-0.234     c-17.211-12.012-111.931-113.073-115.673-113.704c-4.331-0.75-7.758-4.096-8.584-8.389c-2.873-15.438-4.923-30.996-6.065-46.631     c-0.039-0.315-0.077-0.631-0.077-0.984h-0.158c-0.081,0-0.157-0.038-0.238-0.119c-0.039-0.077-0.039-0.196-0.039-0.277     c5.315-15.438,11.739-31.665,18.866-48.322l-40.604-42.062c-3.508-0.712-6.381-2.562-8.115-5.239l-1.458-2.246l0.158-0.038     l-25.992-40.962c-1.577-2.403-1.3-5.157-0.827-7.088c1.416-5.396,5.946-10.635,12.169-13.942     c59.273-31.823,126.227-48.6,193.573-48.6c67.351,0,134.304,16.777,193.616,48.6c5.515,2.915,9.688,7.365,11.542,12.092     c0.157,0.077,19.85,19.692,44.423,44.188C511.804,243.988,512,249.977,512,256z"
        opacity="0.2" />
      <g>
        <path d="M319.55,229.135h-25.619v-33.531c0-4.63,3.758-8.392,8.396-8.392h8.831c4.634,0,8.392,3.762,8.392,8.392      V229.135z"
          fill="#0D2038" />
        <path d="M225.95,229.135h-25.615v-33.531c0-4.63,3.757-8.392,8.396-8.392h8.827c4.635,0,8.393,3.762,8.393,8.392      V229.135z"
          fill="#0D2038" />
        <path d="M208.73,187.211c-4.639,0-8.396,3.762-8.396,8.396v33.527h12.776v-41.923H208.73z" fill="#FFFFFF" opacity="0.1" />
        <path d="M302.327,187.211c-4.639,0-8.396,3.762-8.396,8.396v33.527h12.777v-41.923H302.327z" fill="#FFFFFF"
          opacity="0.1" />
        <path d="M114.531,343.058c1.154,15.607,3.173,31.161,6.084,46.601c0.812,4.308,4.231,7.661,8.562,8.392      c90.562,15.296,173.688,15.266,264.281-0.092c4.323-0.731,7.742-4.077,8.558-8.393c2.907-15.415,4.935-30.962,6.088-46.546      C310.466,352.242,212.173,352.254,114.531,343.058z"
          fill="#0D2038" />
        <path d="M408.169,341.977c-12.246-35.742-30.157-75.419-50.392-116.177c-1.577-3.181-4.662-5.342-8.186-5.754      c-59.846-6.977-117.242-6.977-177.088,0c-3.523,0.412-6.611,2.581-8.188,5.754c-20.177,40.635-38.035,80.196-50.277,115.851      c-0.031,0.092-0.02,0.195,0.035,0.272c0.054,0.085,0.138,0.131,0.238,0.139c0.046,0.004,0.088,0.004,0.135,0.004      c0.023,0.331,0.058,0.661,0.084,0.992c97.642,9.196,195.935,9.185,293.573-0.038c0.023-0.312,0.058-0.615,0.081-0.924      C408.188,342.054,408.181,342.012,408.169,341.977z"
          fill="#0D2038" />
        <g>
          <path d="M172.504,220.046c-3.523,0.412-6.611,2.581-8.188,5.754       c-20.177,40.635-38.035,80.196-50.277,115.851c-0.031,0.092-0.02,0.195,0.035,0.272c0.054,0.085,0.138,0.131,0.238,0.139       c0.046,0.004,0.088,0.004,0.135,0.004c0.023,0.331,0.058,0.661,0.084,0.992c9.938,0.931,19.881,1.754,29.827,2.496       c10.065-35.635,27.577-89.512,42.05-126.935C181.777,219.081,177.158,219.504,172.504,220.046z"
            fill="#FFFFFF" opacity="0.2" />
          <path d="M408.185,342.096c0.004-0.042-0.004-0.084-0.016-0.119c-12.246-35.742-30.157-75.419-50.392-116.177       c-1.577-3.181-4.662-5.342-8.186-5.754c-4.988-0.58-9.941-1.042-14.899-1.526c14.173,36.453,33.304,90.623,44.02,126.969       c9.804-0.738,19.6-1.546,29.392-2.469C408.127,342.708,408.161,342.404,408.185,342.096z"
            fill="#0D2038" />
          <path d="M186.408,218.619c-14.473,37.423-31.985,91.3-42.05,126.935c78.008,5.843,156.351,5.819,234.354-0.065       c-10.716-36.346-29.847-90.516-44.02-126.969C284.808,213.643,236.312,213.681,186.408,218.619z"
            fill="#0D2038" />
          <g>
            <path d="M378.381,345.52c0.111,0.004,0.219,0.008,0.331,0.016l-8.688,56.038        c7.765-1.101,15.562-2.277,23.435-3.615c4.323-0.731,7.742-4.077,8.558-8.393c2.907-15.415,4.935-30.962,6.088-46.546        C398.204,343.958,388.296,344.77,378.381,345.52z"
              fill="#0D2038" />
            <path d="M114.531,343.058c1.154,15.607,3.173,31.161,6.084,46.601        c0.812,4.308,4.231,7.661,8.562,8.392c7.727,1.308,15.385,2.462,23.016,3.539l-7.823-56.035        C134.419,344.812,124.469,343.988,114.531,343.058z"
              fill="#FFFFFF" opacity="0.1" />
            <path d="M378.381,345.52c-77.893,5.854-156.115,5.869-234.012,0.034l7.823,56.035        c74.004,10.5,143.823,10.492,217.831-0.016l8.688-56.038C378.6,345.527,378.492,345.523,378.381,345.52z"
              fill="#0D2038" />
            <path d="M378.381,345.52c-77.893,5.854-156.115,5.869-234.012,0.034l7.823,56.035        c74.004,10.5,143.823,10.492,217.831-0.016l8.688-56.038C378.6,345.527,378.492,345.523,378.381,345.52z"
              fill="#FFFFFF" opacity="0.05" />
          </g>
          <path d="M186.408,218.619c-14.473,37.423-31.985,91.3-42.05,126.935       c78.008,5.843,156.351,5.819,234.354-0.065c-10.716-36.346-29.847-90.516-44.02-126.969       C284.808,213.643,236.312,213.681,186.408,218.619z"
            fill="#FFFFFF" opacity="0.1" />
        </g>
        <path d="M261.042,234.558c-37.185,0-67.315,24.98-67.315,55.808c0,30.831,30.13,55.812,67.315,55.812      c37.188,0,67.319-24.98,67.319-55.812C328.361,259.538,298.23,234.558,261.042,234.558z"
          fill="#0D2038" />
        <path d="M261.042,228.777c-37.185,0-67.315,24.98-67.315,55.804c0,30.83,30.13,55.815,67.315,55.815      c37.188,0,67.319-24.985,67.319-55.815C328.361,253.758,298.23,228.777,261.042,228.777z"
          fill="#FFFFFF" />
        <path d="M261.042,249.05c-23.673,0-42.857,15.908-42.857,35.531c0,19.631,19.185,35.534,42.857,35.534      c23.677,0,42.862-15.903,42.862-35.534C303.904,264.958,284.719,249.05,261.042,249.05z"
          fill="#DBDBDB" />
        <g id="lc_phone-head">
          <path d="M466.815,202.677l-26.012,40.988l-0.092,0.139l-80.347-35.98l0.069-0.254l2.607-9.781      c1.192-4.542,0.516-9.457-1.907-13.484c-2.4-4.031-6.385-6.961-10.946-8.062c-28.9-6.961-58.643-10.477-88.381-10.477      s-59.48,3.515-88.381,10.477c-4.565,1.1-8.546,4.031-10.942,8.062c-2.427,4.027-3.1,8.942-1.911,13.484l3.542,13.343      c1.719,6.8-2.935,14.3-10.642,16.977c-16.796,5.773-33.281,12.974-48.954,21.381c-2.681,1.42-5.658,2.166-8.615,2.166      c-5.035,0-9.269-2.073-11.646-5.708l-27.389-43.15c-1.558-2.399-1.3-5.169-0.812-7.107c1.396-5.4,5.938-10.615,12.154-13.946      c59.292-31.792,126.246-48.581,193.596-48.581c67.351,0,134.304,16.789,193.597,48.581c6.219,3.331,10.761,8.546,12.157,13.946      C468.05,197.627,468.304,200.396,466.815,202.677z"
            fill="#0D2038" />
          <path d="M57.619,203.973c2.15-3.941,5.889-7.546,10.592-10.064      c59.292-31.789,126.246-48.581,193.596-48.581c67.351,0,134.304,16.792,193.597,48.581c4.703,2.519,8.441,6.119,10.592,10.061      l0.819-1.292c1.488-2.28,1.234-5.05,0.746-6.988c-1.396-5.4-5.938-10.615-12.157-13.946      c-59.293-31.792-126.246-48.581-193.597-48.581c-67.35,0-134.304,16.789-193.596,48.581      c-6.215,3.331-10.757,8.546-12.154,13.946c-0.488,1.938-0.746,4.708,0.812,7.107L57.619,203.973z"
            fill="#FFFFFF" opacity="0.1" />
          <path d="M359.523,211.012c-1.735,6.923,2.927,14.427,10.6,17.081c16.812,5.78,33.296,12.977,48.966,21.376      c2.681,1.428,5.665,2.186,8.638,2.186c5.023,0,9.27-2.081,11.569-5.601l1.423-2.242l-80.35-35.984L359.523,211.012z"
            fill="#FFFFFF" />
          <path d="M163.919,211.012c1.738,6.923-2.923,14.427-10.596,17.081c-16.819,5.78-33.3,12.977-48.969,21.376      c-2.681,1.428-5.666,2.186-8.635,2.186c-5.027,0-9.269-2.081-11.569-5.601l-1.427-2.242l80.354-35.984L163.919,211.012z"
            fill="#FFFFFF" />
        </g>
        <path d="M314.077,299.45c-2.073-1.716-5.135-1.631-7.073,0.308c-1.942,1.942-2.027,5-0.308,7.069      c0.153,0.262,11.573,15.969,11.965,16.361c3.254,3.254,8.523,3.254,11.777,0.008c3.254-3.258,3.254-8.527-0.004-11.785      C330.042,311.02,314.339,299.604,314.077,299.45z"
          fill="#E64F30" />
        <g>
          <rect fill="#EFECE3" height="13.178" width="34.904" x="223.607" y="373.104" />
          <rect fill="#FFFFFF" height="13.178" width="35.419" x="258.512" y="373.104" />
        </g>
        <polygon opacity="0.2" points="226.65,376.146 261.554,376.146 293.931,376.146 293.931,373.104 258.512,373.104       223.607,373.104 223.607,386.281 226.65,386.281     " />
      </g>
    </g>
  </g>
</svg>
